# xmcd CD database file
#
# Track frame offsets:
#	150
#	34822
#	57414
#	80111
#	110182
#	129273
#	167473
#	194997
#	226923
#	258106
#	289695
#	321481
#
# Disc length: 4536 seconds
#
# Revision: 0
# Processed by: cddbd v1.5.2PL0 Copyright (c) Steve Scherf et al.
# Submitted via: CDex 1.51
#
DISCID=b111b60c
DTITLE=AA.VV. - LatinAmerica - Latin Jazz
DYEAR=2003
DGENRE=Jazz
TTITLE0=Gonzalo Rubalcaba/Mi gran pasiòn
TTITLE1=Paquito D'Rivera/Reuniòn
TTITLE2=Jerry Gonzales/Viva Cepeda
TTITLE3=Paquito D'Rivera/Habana
TTITLE4=Luis Agudo/Guajira
TTITLE5=Mongo Santamaria/Bacoso
TTITLE6=Irakere/Samba para Enrique
TTITLE7=Cal Tjader, Eddie Palmieri/Picadillo
TTITLE8=Ray Mantilla/Dark powers
TTITLE9=Hector "Costita" Bisignani/Karim
TTITLE10=Pete and Sheila Escovedo/Solo tù
TTITLE11=Claudo Roditi/Brazil infinity
EXTD=YEAR: 2003
EXTT0=
EXTT1=
EXTT2=
EXTT3=
EXTT4=
EXTT5=
EXTT6=
EXTT7=
EXTT8=
EXTT9=
EXTT10=
EXTT11=
PLAYORDER=
